<?xml version="1.0" encoding="UTF-8"?>
<svg id="Layer_1" xmlns="http://www.w3.org/2000/svg" version="1.1" viewBox="0 0 450 460">
  <!-- Generator: Adobe Illustrator 29.5.1, SVG Export Plug-In . SVG Version: 2.1.0 Build 141)  -->
  <defs>
    <style>
      .st0 {
        fill: #dfe0de;
      }

      .st1 {
        fill: #ebebec;
      }

      .st2 {
        fill: #e1e0df;
      }

      .st3 {
        fill: #e4e4e2;
      }

      .st4 {
        fill: #eceae9;
      }

      .st5 {
        fill: #f8f8f7;
      }

      .st6 {
        fill: #cccccb;
      }

      .st7 {
        fill: #e9e9e8;
      }

      .st8 {
        fill: #eceaea;
      }

      .st9 {
        fill: #eaeae7;
      }

      .st10 {
        fill: #edebec;
      }

      .st11 {
        fill: #e9e9e6;
      }

      .st12 {
        fill: #e6e7e5;
      }

      .st13 {
        fill: #ecece9;
      }

      .st14 {
        fill: #e5e4e3;
      }

      .st15 {
        fill: #d9d9d8;
      }

      .st16 {
        fill: #d8d8d7;
      }

      .st17 {
        fill: #eae8e8;
      }

      .st18 {
        fill: #dedddc;
      }

      .st19 {
        fill: #ebecea;
      }

      .st20 {
        fill: #e8e7e6;
      }

      .st21 {
        fill: #d7d7d7;
      }

      .st22 {
        fill: #d0cfce;
      }

      .st23 {
        fill: #eaebe9;
      }

      .st24 {
        fill: #e1e1e0;
      }

      .st25 {
        fill: #d9d8d7;
      }

      .st26 {
        fill: #e7e8e6;
      }

      .st27 {
        fill: #ebebe9;
      }

      .st28 {
        fill: #eae9ea;
      }

      .st29 {
        fill: #ebe9e9;
      }

      .st30 {
        fill: #e9e8e9;
      }

      .st31 {
        fill: #e2e2e1;
      }

      .st32 {
        fill: #ecebea;
      }

      .st33 {
        fill: #dbdcdb;
      }

      .st34 {
        fill: #d7d7d6;
      }

      .st35 {
        fill: #e7e7e6;
      }

      .st36 {
        fill: #e7e5e5;
      }

      .st37 {
        fill: #e5e6e4;
      }

      .st38 {
        fill: #ececea;
      }

      .st39 {
        fill: #dededc;
      }

      .st40 {
        fill: #d0cfcf;
      }

      .st41 {
        fill: #d6d6d4;
      }

      .st42 {
        fill: #c2c3c2;
      }

      .st43 {
        fill: #e5e4e2;
      }

      .st44 {
        fill: #dfe1df;
      }

      .st45 {
        fill: #e1e2e0;
      }

      .st46 {
        fill: #e6e5e4;
      }

      .st47 {
        fill: #eae9e9;
      }

      .st48 {
        fill: #d7d6d5;
      }

      .st49 {
        fill: #dedfdd;
      }

      .st50 {
        fill: #e5e4e4;
      }

      .st51 {
        fill: #e8e6e6;
      }

      .st52 {
        fill: #eaeae9;
      }

      .st53 {
        fill: #e9ebea;
      }

      .st54 {
        fill: #e8e7e8;
      }

      .st55 {
        fill: #e9eae8;
      }

      .st56 {
        fill: #dddddc;
      }

      .st57 {
        fill: #dadad9;
      }

      .st58 {
        fill: #d3d2d1;
      }

      .st59 {
        fill: #d5d5d4;
      }

      .st60 {
        fill: #efefee;
      }

      .st61 {
        fill: #e3e1e1;
      }

      .st62 {
        fill: #e4e5e4;
      }

      .st63 {
        fill: #e6e6e4;
      }

      .st64 {
        fill: #e9e9e7;
      }

      .st65 {
        fill: #d1d1d0;
      }

      .st66 {
        fill: #e8e8e7;
      }

      .st67 {
        fill: #bfc0c0;
      }

      .st68 {
        fill: #eae8e7;
      }

      .st69 {
        fill: #dad9d8;
      }

      .st70 {
        fill: #cfcfcd;
      }

      .st71 {
        fill: #ecedeb;
      }

      .st72 {
        fill: #dcdbd9;
      }

      .st73 {
        fill: #ecebe9;
      }

      .st74 {
        fill: #d7d7d5;
      }

      .st75 {
        fill: #e4e3e2;
      }

      .st76 {
        fill: #d3d3d3;
      }

      .st77 {
        fill: #ebebe8;
      }

      .st78 {
        fill: #dbdad9;
      }

      .st79 {
        fill: #e7e6e5;
      }

      .st80 {
        fill: #e3e4e2;
      }

      .st81 {
        fill: #e0e1df;
      }

      .st82 {
        fill: #ddd;
      }

      .st83 {
        fill: #eae9e7;
      }

      .st84 {
        fill: #e7e8e8;
      }

      .st85 {
        fill: #cececd;
      }

      .st86 {
        fill: #efeeed;
      }

      .st87 {
        fill: #d3d1d1;
      }

      .st88 {
        fill: #e5e5e4;
      }

      .st89 {
        fill: #ebeae8;
      }

      .st90 {
        fill: #e5e5e3;
      }

      .st91 {
        fill: #c7c7c6;
      }

      .st92 {
        fill: #e8e8e6;
      }

      .st93 {
        fill: #eee;
      }

      .st94 {
        fill: #c9c9c7;
      }

      .st95 {
        fill: #e7e7e5;
      }

      .st96 {
        fill: #e6e8e7;
      }

      .st97 {
        fill: #dfdedd;
      }

      .st98 {
        fill: #d4d4d3;
      }

      .st99 {
        fill: #ededec;
      }

      .st100 {
        fill: #e3e3e2;
      }

      .st101 {
        fill: #eaeae8;
      }

      .st102 {
        fill: #ebebeb;
      }

      .st103 {
        fill: #e9e8e7;
      }

      .st104 {
        fill: #eae9e8;
      }

      .st105 {
        fill: #f8f9f8;
      }

      .st106 {
        fill: #d9dad8;
      }

      .st107 {
        fill: #d5d5d3;
      }

      .st108 {
        fill: #d4d3d2;
      }

      .st109 {
        fill: #e4e4e3;
      }

      .st110 {
        fill: #e5e5e2;
      }

      .st111 {
        fill: #ebeae9;
      }

      .st112 {
        fill: #e8e9e7;
      }

      .st113 {
        fill: #e8e9e8;
      }

      .st114 {
        fill: #e6e5e5;
      }

      .st115 {
        fill: #eaebea;
      }

      .st116 {
        fill: #ecedec;
      }

      .st117 {
        fill: #ededed;
      }

      .st118 {
        fill: #e7e9e8;
      }

      .st119 {
        fill: #d6d5d4;
      }

      .st120 {
        fill: #dedfde;
      }

      .st121 {
        fill: #eaeaea;
      }

      .st122 {
        fill: #d9d8d6;
      }

      .st123 {
        fill: #d3d3d2;
      }

      .st124 {
        fill: #ebedec;
      }

      .st125 {
        fill: #ecebeb;
      }

      .st126 {
        fill: #e9eae9;
      }

      .st127 {
        fill: #e0dfde;
      }

      .st128 {
        fill: #edeeed;
      }

      .st129 {
        fill: #e3e3e1;
      }

      .st130 {
        fill: #ececeb;
      }

      .st131 {
        fill: #e8eae8;
      }

      .st132 {
        fill: #c0bfbe;
      }

      .st133 {
        fill: #e6e6e6;
      }

      .st134 {
        fill: #ebebea;
      }
    </style>
  </defs>
  <path class="st60" d="M135.69,163.19c5.17,5.82,6.95,14.28,8.53,21.88.12.55.23,1.1.35,1.67.08.42.18.83.26,1.26.39-.02.79-.04,1.2-.06,11.36-.57,22.71-.73,34.08-.74h5.52c4.94,0,9.87-.01,14.81-.01h9.26c8.58,0,17.14-.01,25.71-.01h8.31c8.93,0,17.86-.01,26.79-.02,9.19-.01,18.4-.02,27.6-.02,5.16,0,10.31,0,15.45-.01,4.38,0,8.75-.01,13.13,0h13.95c.7,0,1.41,0,2.14-.01,4,.02,6.84.81,8.51,2.34,2.95,5.79.22,13.32-1.35,19.21-.36,1.39-.73,2.78-1.09,4.18-.16.6-.32,1.21-.48,1.83-.3,1.21-.41,2.68-.35,4.41h-1.31c-.08.81-.16,1.61-.26,2.43-.34,2.84-.93,5.53-1.62,8.29-.12.48-.24.97-.36,1.46-.26,1.03-.51,2.04-.77,3.07-.67,2.69-1.33,5.38-1.99,8.07-.13.53-.27,1.08-.4,1.62-1.2,4.88-2.38,9.78-3.51,14.68-.17.71-.34,1.43-.51,2.16-.15.64-.3,1.29-.46,1.96-.13.56-.26,1.12-.39,1.69-.21,1.04-.05,2.21.46,3.51h-1.97c-.08.79-.16,1.59-.24,2.4-1.16,9.7-4.21,19.06-11.48,25.48-5.94,4.63-11.55,6.82-18.91,6.75h-1.72c-1.9,0-3.8,0-5.69-.01h-4.09c-3.7,0-7.4,0-11.11-.01h-11.6c-7.32,0-14.65-.01-21.97-.02-8.35-.01-16.68-.02-25.03-.02-17.15-.01-34.31-.04-51.46-.07-.22.46-.43.9-.66,1.38-.74.09-1.48.17-2.25.26-.77.14-1.53.29-2.33.43-1.83,2.85-1.99,6.3-1.97,9.65,1.08,2.97,2.56,4.13,5.22,5.51,1.42.17,2.86.21,4.32.12.74-.02,1.47-.04,2.23-.06.63-.02,1.28-.05,1.94-.07,1.31,0,2.65.11,4.03.33,2.71.38,5.32.45,8.05.43h45.74c1.69.02,3.32-.24,4.9-.78v1.38c4.31-.45,8.66-.91,13.07-1.38v1.38c.46-.02.92-.04,1.39-.06,8.75-.38,17.47-.72,26.24-.59.56,0,1.11,0,1.67.01s1.04.02,1.45.02c.93,0,2.01-.26,3.22-.76,1.01.17,2.03.35,3.04.52,4.38.5,8.87.14,13.25.02.79,0,1.59-.02,2.41-.02.71-.01,1.44-.02,2.18-.05,2.26.26,3.43.86,5.25,2.29,1.63,2.59,1.66,3.83,1.31,6.89-.74,1.32-1.83,2.47-3.27,3.45-2.83.48-5.63.64-8.49.69.26.27.51.56.77.84,4.09,4.72,6.49,9.9,6.42,16.39-.44,6.3-2.99,11.81-7.39,16.11-4.62,3.77-9.63,5.46-15.48,5.25-5.68-.93-10.15-3.92-14.26-8.05-3.66-5.86-4.86-11.86-4.04-18.82,1.2-4.65,3.77-7.83,6.53-11.72h-68.59c0,2.47.51,3.01,1.88,4.96,2.79,4.28,3.84,8.41,3.35,13.66-1.37,7.39-4.16,12.66-10.07,17.01-5.63,3.32-11.21,3.51-17.37,1.85-.9-.27-1.77-.13-2.61.43-.87-.46-1.53-1.38-1.97-2.75-.43-.22-.86-.46-1.31-.69v-1.38c-.38-.14-.75-.29-1.14-.43-.98-.63-1.92-1.66-2.81-3.1-.42-.66-.83-1.31-1.27-1.98h-1.97c-.24-.89-.46-1.81-.66-2.75.22-.22.43-.46.66-.69-.22-.46-.43-.9-.66-1.38-.57-7.2-.07-14,4.42-19.78.48-.53.97-1.06,1.47-1.6-.43-.22-.86-.46-1.31-.69v-1.38c-.48.04-.97.06-1.47.1-6.02.22-11.29-.72-16.1-4.8-4.59-4.61-6.5-9.59-7.92-15.99-.16-.64-.32-1.28-.48-1.93-.11-1.01.27-2.2,1.14-3.58.66-1.38,1.32-2.75,1.97-4.14,1.01-2.18,1.99-4.19,3.27-6.21h1.31c.22-.68.43-1.36.66-2.07.43-.46.86-.9,1.31-1.38,0-9.06-4.24-19.32-6.61-27.96-.62-2.28-1.24-4.55-1.86-6.83-.4-1.45-.79-2.9-1.2-4.35-.19-.68-.36-1.35-.55-2.06-.18-.63-.35-1.25-.52-1.9-.15-.55-.3-1.1-.46-1.66-.62-1.56-1.39-2.34-2.53-3.49.19-.93.42-1.85.66-2.75-.18-1.61-.39-3.22-.66-4.82h-1.31c-.05-.62-.12-1.24-.18-1.87-.54-3.98-1.74-7.79-2.83-11.65-.23-.83-.47-1.66-.7-2.52-.74-2.64-1.48-5.28-2.22-7.92-.74-2.65-1.48-5.3-2.22-7.96-.46-1.65-.92-3.3-1.39-4.94-.2-.74-.42-1.49-.63-2.26-.18-.65-.36-1.31-.55-1.98-.26-1.11-.39-2.35-.39-3.72-.65-.23-1.3-.46-1.97-.69h1.31c-.67-2.47-1.37-4.92-2.09-7.36-.19-.69-.38-1.39-.58-2.11-1.1-3.8-1.97-6.75-5.18-9.15-1.25-.37-2.51-.56-3.8-.56-.63-.04-1.28-.06-1.92-.1-.48,0-.96-.02-1.45-.02v1.38c-.73-.01-1.45-.02-2.21-.04-1.51-.09-2.73.15-3.67.73-1.34-.14-2.64-.37-3.92-.69-.22-.45-.44-.91-.66-1.38-.71.12-1.43.26-2.17.38-1.61.2-3.06.07-4.38-.38-.87.21-1.75.45-2.61.69-1.02.06-2.05.09-3.06.09h-1.56c-.83-.06-1.47-.32-1.91-.78-.94-.07-1.87-.12-2.81-.17-2.26-.25-2.92-.4-4.74-1.98-1.18-2.5-1.27-4.04-.94-6.8,1.12-2.64,2.06-3.75,4.58-4.82.97-.13,1.98-.21,3.04-.25.61-.01,1.2-.04,1.82-.05.65,0,1.29-.02,1.95-.04.67-.02,1.35-.03,2.03-.05,1.43-.04,2.85-.06,4.28-.09,2.15-.04,4.31-.1,6.46-.16,13.57-.32,22.93,1.5,28.09,5.45l.05-.06ZM148.1,200.41c.16.58.31,1.15.47,1.76.35,1.3.7,2.59,1.05,3.89.71,2.61,1.41,5.24,2.13,7.86,1.63,6.04,3.27,12.06,4.9,18.09l5.82,21.49c.23.84.46,1.7.7,2.57.2.74.4,1.47.61,2.24.16.61.32,1.2.5,1.83,1.88,6.82,3.85,13.61,5.84,20.39.27.93.55,1.86.82,2.79.66,2.24,1.32,4.49,1.98,6.73,17.35.05,34.69.09,52.04.11,8.05,0,16.11.02,24.16.05,7.03.02,14.04.04,21.07.04,3.72,0,7.43,0,11.15.02,3.5.01,7,.01,10.5.01,1.28,0,2.57,0,3.85.01,7.66.25,14.74-1.49,21.27-5.2,4.32-5.49,5.63-12.84,7.26-19.59.43-1.78.87-3.57,1.31-5.35.28-1.15.57-2.29.85-3.45.13-.52.26-1.05.39-1.6.73-3.05,1.25-6.06,1.64-9.18.13-.54.27-1.08.4-1.64.08-.37.16-.74.24-1.12-.22-.22-.43-.46-.66-.69h1.31c.13-.57.27-1.14.4-1.72,1.39-5.86,2.77-11.71,4.16-17.57.11-.47.22-.94.34-1.43.4-1.7.83-3.4,1.27-5.11.36-1.49.73-2.97,1.1-4.46.19-.74.38-1.5.58-2.27.18-.72.36-1.45.54-2.19.16-.66.32-1.31.5-2,.3-1.98.11-3.38-.38-5.32-.86.46-1.72.9-2.61,1.38-.22-.46-.43-.9-.66-1.38h-2.61v1.38c-.65-.46-1.29-.9-1.97-1.38-1.48-.12-3.03-.14-4.66-.09-.82.01-1.64.02-2.49.04-.66.02-1.32.03-1.99.05h-9.8v1.38h-1.97v-1.38c-2.89-.07-5.22,0-7.83,1.38v-1.38h-11.75v1.38c-.53-.23-1.06-.46-1.59-.69-.99-.49-1.76-.72-2.33-.69h-3.26c-14.75-.02-29.51-.05-44.25-.06-7.34,0-14.67-.01-22.02-.04-6.39-.01-12.79-.02-19.2-.02-3.39,0-6.77,0-10.16-.01h-19.26c-1.74-.04-3.29.48-4.66,1.56v-1.38c-.65.22-1.29.46-1.97.69l-.66-.69c-.86.45-1.73.91-2.61,1.38v-1.38h-4.58c-.51.12-1.02.26-1.55.38-1.14.2-2.36.07-3.67-.38v-.04ZM204.28,332.76c.65.45,1.3.91,1.97,1.38v-1.38h-1.97ZM184.8,344.3c-1.29,2.58-1.7,4.93-1.17,7.82.75,2.53,1.55,3.93,3.37,5.8,3,1.38,5.56,1.7,8.78,1.03,2.14-1.7,3.77-3.49,4.58-6.21.28-3.73.27-5.91-1.97-8.96-1.35-1.66-1.88-2.04-3.92-2.75-3.97-.32-6.76.3-9.68,3.27h.01ZM283.32,343.78c-1.71,2.71-2.29,5.07-1.7,8.34.78,2.58,1.55,3.93,3.46,5.8,2.81,1.35,4.31,1.4,7.39,1.03,2.97-1.29,4.43-3.2,5.88-6.21.57-3.02.23-5.03-1.06-7.79-2.19-2.61-4.12-3.71-7.39-4.23-2.73.41-4.27,1.43-6.57,3.06h-.01ZM172.92,358.95l.66,1.38-.66-1.38Z"/>
  <path class="st86" d="M166.38,80.48c5.55,1.7,9.45,4.19,13.72,8.27.46.42.92.84,1.39,1.26,5.83,5.66,9.33,13.48,12.99,20.79,2.19-.77,2.54-1.29,3.92-3.15,3.12-3.9,7.98-8.91,12.98-9.48,1.36.14,2.49.58,3.39,1.31,5.51,7.2,5.9,23.26,5.18,31.98-.94,7.51-2.41,14.36-5.83,21.07-.62,1.15-.64,2.4-.05,3.74.78.62,1.64,1.19,2.57,1.72,1.98,1.18,2.65,1.72,3.96,3.79-.09,2.69-.32,4.34-1.79,6.54-.98.69-1.97.97-2.99.87-1.83-.55-3.3-1.3-4.97-2.24-6.33-3.11-13-2.96-19.64-1.03-.46.12-.92.23-1.4.35-1.08.29-2.13.64-3.18,1.03-.22.46-.43.9-.66,1.38-.74.43-1.57.86-2.49,1.29-2.21,1.12-3.67,2.32-5.34,4.23h-1.31c-.18.37-.35.73-.52,1.12l-4.7,9.91c-.22-.68-.43-1.36-.66-2.07-.59.04-1.18.09-1.79.12-2.32-.14-3.07-.57-4.74-2.19.28-5.45,1.94-10.72,5.88-14.47-.39-.14-.78-.27-1.17-.41-13.57-5.17-23.69-17.78-29.75-31.15-3.14-7.42-6.29-16.75-5.01-24.96.6-1.46,1.47-2.61,2.61-3.45,7.3-1.88,17.1,2.88,23.52,6.21l-.66-1.38c.22-.45.44-.91.66-1.38-.43-.23-.87-.46-1.31-.69.22-.22.43-.46.66-.69.18-1.35.31-2.71.42-4.08.08-.84.16-1.69.23-2.55.16-1.77.31-3.54.47-5.3.71-7.63,2.12-12.74,4.23-15.34.39-.32.78-.66,1.18-.99v.02ZM170.96,94.26c-1.13,3.83-.79,7.93-.81,11.91,0,1.49-.03,2.97-.05,4.46v2.85c0,.86,0,1.72-.01,2.6.36,3.57,1.55,5.2,4.15,7.44,7.03,6.16,11.32,14.5,15.02,23.14,3.22-5.08,1.39-14.18.32-20.01-1.04-5.04-2.92-9.75-4.9-14.45h-1.97c.15-.38.3-.76.46-1.15.47-3.77-3.33-7.7-5.36-10.61-.61-.83-1.37-1.73-2.28-2.73h-1.31v-1.38c-1.08-.75-2.17-1.44-3.27-2.07h0ZM183.37,110.81l.66,1.38-.66-1.38ZM206.24,112.87c-3.35,3.67-5.99,7.45-7.19,12.4.22,1.15.43,2.3.66,3.45.09,1.97.16,3.94.2,5.91.01.56.03,1.13.04,1.7l.12,5.35c.03,1.21.05,2.43.08,3.64.07,2.96.13,5.94.2,8.9.63-.55,1.25-1.08,1.9-1.64.35-.3.7-.61,1.06-.92,4.98-4.66,6.45-14.49,6.96-21.23.26-5.87.09-11.21-1.44-16.89l-1.31.69v-1.38h-1.31.01ZM144.83,118.39c1.16,10.4,6.03,19.12,12.41,26.88.38.47.77.94,1.16,1.44,5.13,5.85,12.67,11.18,20.34,11.82,1.56,0,3.08-.04,4.63-.16-1.45-11.9-9.77-23.15-18.33-30.55-1.06-.86-2.14-1.71-3.23-2.54-.42-.32-.82-.64-1.25-.99-4.4-3.18-10.39-5.91-15.74-5.91h.01ZM189.9,146.64l.66,1.38-.66-1.38Z"/>
  <path class="st60" d="M259.48,72.38c1.53.35,2.94.98,4.24,1.9,1.4,4.75-.15,9.27-1.27,13.95-.38,1.61-.75,3.22-1.12,4.83-.18.71-.34,1.41-.51,2.14-.3,1.22-.42,2.51-.36,3.87.51-.64,1.02-1.28,1.55-1.93.28-.36.58-.72.87-1.09.77-1.02,1.47-2.09,2.15-3.17h1.31c1.01-1,1.92-2.08,2.85-3.16,1.24-1.13,2.07-1.44,3.68-1.66,1.92.53,2.95.94,4.16,2.63.53,1.93.28,3.02-.24,4.96-.65,1-1.37,1.96-2.17,2.89-.39.46-.78.93-1.17,1.41-.83.81-1.7,1.44-2.61,1.9-1.59.89-1.75,1.76-2.54,3.46-1.12,1.23-2.26,2.4-3.43,3.58-3.06,3.11-5.52,6.32-7.67,10.21.57.33,1.13.67,1.72,1.02,5.69,3.45,9.75,6.69,11.99,13.46,1.94,10.14-1.29,20.62-3.68,30.4-.48,2.01-.97,4.03-1.44,6.05-.31,1.29-.62,2.59-.94,3.88-.14.59-.28,1.2-.42,1.81-.86,3.47-1.91,6.01-3.97,8.87-.22-.46-.43-.9-.66-1.38-.82.07-1.64.14-2.49.21-1.69,0-3.06-.55-4.12-1.64-.75-2.68-.18-4.28.74-6.85-1.08.22-2.15.46-3.27.69v-1.38c-.81-.07-1.62-.14-2.45-.21-1.63-.24-2.91-.52-4.46-1.16-1.4-2.04-.98-3.73-.71-6.16.29-.95,1.08-1.88,2.38-2.8,3.84-.33,7.39.5,11.11,1.38.11-.87.22-1.73.32-2.63.06-.49.13-.98.19-1.47.19-1.87.3-3.15-.51-4.86h-2.61v-2.75c-.39-.01-.79-.04-1.2-.05-2.84-.21-4.94-.83-6.31-1.85-1.14-1.8-1.63-2.81-1.63-4.99,1.12-2,1.9-3.18,4-3.95,2.56-.25,4.81.25,7.31.81.48.1.97.2,1.47.31,1.18.25,2.37.51,3.55.77-.08-1.3-.16-2.61-.24-3.92-.04-.73-.09-1.46-.13-2.21-.27-2.11-.67-3.71-1.58-5.59-.97-.56-2.06-1.02-3.27-1.38-.83-.36-1.67-.74-2.49-1.12-.69-.31-1.37-.62-2.09-.94-.22.22-.43.46-.66.69-2.29-.04-4.56-.14-6.85-.25-2.79.3-3.7.81-5.56,3-2.01,3.85-2.37,7.96-2.65,12.28-.05.66-.09,1.33-.15,2.01-.32,4.45-.57,8.9-.78,13.35-.03.54-.05,1.08-.08,1.64-.13,2.7-.27,5.39-.39,8.09-.05,1-.09,2.01-.15,3.01-.04.89-.08,1.77-.12,2.69-.24,2.39-.67,4.35-1.55,6.57-.43.22-.86.46-1.31.69.22.46.43.9.66,1.38-3.41.2-5.05-.79-7.83-2.75-.85-4.32-.62-8.5-.36-12.88.04-.69.08-1.4.12-2.12.08-1.47.18-2.95.27-4.42.13-2.22.26-4.44.38-6.65,1.01-17.36,3.76-28.27,8.25-32.73,4.59-3.77,8.49-4.8,14.2-4.61-.13-.37-.26-.76-.39-1.14-1.36-3.93-2.72-7.87-4.07-11.8-.51-1.47-1.01-2.95-1.52-4.42-.73-2.13-1.45-4.28-2.18-6.41-.23-.66-.46-1.33-.69-2.01-1.39-4.15-1.92-7.27-1.59-9.37,2.1-1.47,3.38-1.59,5.86-1.7,2.02.48,2.68,1.34,3.94,3.07.85,1.96,1.49,3.98,2.13,6.04.18.55.35,1.09.52,1.66.43,1.34.85,2.69,1.27,4.03.11-.57.23-1.13.34-1.72.42-2.12.83-4.23,1.27-6.34.19-.92.36-1.82.54-2.74.26-1.31.52-2.63.79-3.95.16-.79.31-1.59.47-2.39,1.12-4.77,3.14-7.04,6.06-6.82v-.05ZM242.82,128.72v.69h4.58v-.69h-4.58Z"/>
  <path class="st99" d="M322.55,85.45c.43.15.85.3,1.29.45.89.31,1.78.63,2.68.94,1.36.48,2.72.95,4.09,1.44.87.31,1.74.61,2.61.92.78.27,1.58.56,2.38.84,1.31.52,2.62,1.24,3.92,2.16.54,4.04.51,8.75-1.31,12.4-.43.2-.86.41-1.31.62-.93.42-1.55,1.1-1.84,2.04-.09.51-.19,1.03-.3,1.56-.11.57-.22,1.15-.34,1.73s-.22,1.2-.31,1.85c-.11.63-.22,1.25-.32,1.91-1.39,8.49-.74,15.23,1.23,23.52,2.33,9.93,1.82,17.71-.74,27.44-.18.69-.36,1.38-.54,2.07-.58,2.17-1.17,4.34-1.78,6.51-.19.69-.38,1.39-.58,2.09-.19.64-.38,1.29-.57,1.96-.16.57-.32,1.15-.5,1.73-.65,1.61-1.28,2.47-2.56,3.56-.94.18-1.92.27-2.93.26-.51,0-1.01,0-1.53.01-1.76-.35-2.29-.84-3.37-2.34,0-.91.12-1.89.36-2.95.13-.61.27-1.23.42-1.86,1.25-4.92,2.58-9.81,3.96-14.7,1.78-6.56,2.64-12.02.81-18.66-.66-2.42-.98-4.08-.98-6.63-.43-.22-.86-.46-1.31-.69-.81-10.72-.27-20.09,2.23-30.6.31-1.21.43-2.5.38-3.87-1.94-.45-3.9-.91-5.88-1.38-.15.42-.31.85-.47,1.28-4.68,12.65-9.42,21.29-14.23,25.91-.75.66-1.08,1.48-.98,2.45-.5.19-1,.37-1.51.56-1.7.79-2.46,1.51-3.72,2.89h-1.31c-.15.38-.3.77-.44,1.16-.57,1.07-1.36,2.06-2.37,2.97-2.69,2.7-3.9,6.68-5.02,10.34v2.75c.4.11.81.22,1.23.33,1.84.51,3.68,1.03,5.51,1.56.64.17,1.28.35,1.94.53.62.17,1.23.36,1.86.53.57.16,1.13.32,1.71.48,1.8.84,2.48,1.65,3.45,3.45-.04,2.61-.28,4.25-1.68,6.42-1.06.77-2.38,1.06-3.97.87-.92-.26-1.82-.55-2.72-.83-.44-.14-.9-.26-1.36-.4-1.33-.4-2.67-.82-3.98-1.24-.87-.26-1.75-.53-2.63-.79-.65-.2-1.29-.38-1.95-.58-.22.9-.43,1.82-.66,2.75h-1.31c-.07.67-.15,1.34-.23,2.02-.42,3.12-1.18,6.11-1.98,9.15-.13.55-.27,1.09-.42,1.66-.93,3.59-2.02,5.99-3.26,7.18h-2.61c-.22.68-.43,1.36-.66,2.07-.43-.22-.86-.46-1.31-.69l.66-1.38c-.53-.1-1.05-.2-1.59-.3-1.11-.26-1.89-.62-2.33-1.08,0-5.49,1.52-10.72,2.97-15.94.22-.79.43-1.59.65-2.39.53-1.93,1.06-3.87,1.59-5.79-.43-.22-.86-.46-1.31-.69h1.97c.08-.67.16-1.35.24-2.03,1.7-12.42,5.88-23.81,15.48-31.56.4-.33.79-.66,1.21-1,1.58-1.29,3.02-2.47,4.83-3.36,1.48-.86,1.7-1.8,2.41-3.4.44-.87.89-1.75,1.35-2.61.26-.5.5-.98.77-1.49.53-1.02,1.05-2.03,1.58-3.04,2.03-3.98,4.16-8.24,4.16-12.85h-2.61v-3.45l1.31-.69c.43-.99.82-2,1.18-3.01.85-2.09,1.35-3.11,2.97-4.65,3.45-1.21,6.92.45,10.23,1.61v-.02Z"/>
  <path class="st99" d="M202.31,214.89c2.09,2.21,2.5,4.59,3.11,7.58.09.48.2.95.3,1.45.32,1.59.65,3.16.96,4.75.23,1.1.44,2.21.67,3.31.35,1.72.7,3.45,1.05,5.17.83,4.1,1.7,8.19,2.58,12.27.24,1.13.48,2.26.73,3.37.35,1.62.7,3.25,1.06,4.86.34,1.5.66,3.01.97,4.51.19.86.38,1.71.57,2.59.44,2.8.55,5.19.39,8.03-1.39,1.82-2.38,2.57-4.55,3.04-2.26.17-3.63-.05-5.45-1.49-1.66-3.36-2.33-6.83-3.06-10.51-.4-2.06-.82-4.11-1.24-6.17-.3-1.45-.58-2.89-.85-4.34-.13-.67-.27-1.34-.4-2.03-.12-.61-.23-1.21-.35-1.83-.22-1.07-.8-2.03-1.72-2.86.03-1.08.04-2.14.07-3.22-.18-3.67-1.2-7.26-1.99-10.82-1.61-7.2-2.49-12.4-2.65-15.59,2.61-3.27,6.11-2.99,9.8-2.07h.01Z"/>
  <path class="st60" d="M287.24,213.51c3.65.83,6.05,1.97,7.19,3.45,1.05,5.56-.73,11.74-1.79,17.18-.19.98-.38,1.96-.55,2.95-.39,2.04-.78,4.09-1.17,6.13-.5,2.6-1,5.22-1.49,7.82-.38,2.02-.77,4.04-1.16,6.07-.19.97-.36,1.92-.55,2.89-1.65,8.72-3.29,13.79-4.93,15.22-2.84.68-4.63.76-7.23-.73-1.87-2.27-1.52-3.54-1.39-6.51.48-5.53,1.53-10.86,2.87-16.21.98-4.02,1.78-8.05,2.52-12.13.11-.61.23-1.23.35-1.86.55-3.07.93-5.94.79-9.08h1.31c.08-.78.16-1.56.24-2.37.66-5.46,1.66-9.27,3.02-11.41h1.97v-1.4Z"/>
  <path class="st117" d="M242.17,213.51c.96.27,1.91.57,2.85.87.52.16,1.06.32,1.6.48,1.82.93,2.02,1.49,2.72,3.48.13,1.76.2,3.43.2,5.19,0,.52,0,1.05.01,1.57.01,1.71.03,3.43.03,5.14,0,1.19,0,2.39.01,3.58,0,2.5.01,5.01.01,7.5,0,3.2.03,6.41.05,9.6.01,2.47.03,4.93.03,7.4,0,1.18,0,2.35.03,3.54.01,1.65.01,3.3,0,4.96,0,.48.01.97.03,1.47-.04,2.68-.36,3.74-1.99,5.85-1.13.94-2.16,1.5-3.08,1.67-.43-.08-.87-.17-1.31-.26-.43-.07-.86-.14-1.31-.21-1.55-.61-2.17-1.15-3.18-2.54-.22-1.3-.37-2.73-.44-4.3-.04-.87-.08-1.73-.12-2.63-.13-4.4-.19-8.8-.19-13.2v-8.91c0-2.57,0-5.13-.01-7.7v-15.02c.16-2.11.55-3.59,1.47-5.46.92-.37,1.79-.6,2.61-.69v-1.38l-.03-.02Z"/>
  <path class="st74" d="M147.44,199.72h192.72c-.98,6.2-1.85,10.57-2.61,13.1-.83-2.52-.47-4.44,0-7.03.24-1.33.47-2.66.66-4-.22-.22-.43-.46-.66-.69-.65.23-1.3.46-1.97.69-.4-.11-.81-.22-1.23-.35-1.72-.43-2.95-.1-4.66.35v-.69h-1.64c-5.44,0-8.7-.01-9.79-.04-1.09-.02-2.28.22-3.59.73v-1.38h-3.27v1.38h-1.97v-1.38c-1.56.32-3.11.64-4.66,1.08-.82.2-1.88.3-3.19.3v-1.38c-1.06.1-2.13.2-3.19.3-.59.06-1.18.11-1.79.17-1.04.08-2,.38-2.87.9v-1.38h-1.97c-.22.46-.43.9-.66,1.38v-1.38h-1.31v1.38c-.4-.12-.81-.26-1.23-.38-.94-.31-1.84-.19-2.69.38v-1.38c-15.72.07-31.45.15-47.17.24-7.3.04-14.61.07-21.9.11-6.37.02-12.72.06-19.09.1-3.37.01-6.74.04-10.11.05-3.16.01-6.34.02-9.5.05-1.17,0-2.33,0-3.5.01-1.59,0-3.18.01-4.77.02h-1.41c-1.98.01-3.49.14-5.37.79-.22-.22-.43-.46-.66-.69-.65.22-1.29.46-1.97.69-.22-.22-.43-.46-.66-.69-.65.22-1.29.46-1.97.69v-1.38c-1.55.31-3.09.69-4.62,1.12-1.48.3-2.45.05-3.88-.43-.06,1.44.17,2.92.7,4.44.59,2.37.62,3.01-.04,5.22-.44-1.45-.87-2.9-1.31-4.35-.24-.81-.49-1.63-.74-2.45-.38-1.44-.57-2.85-.57-4.23h.07Z"/>
  <path class="st34" d="M164.43,316.22c.28.25.55.5.85.76,4.15,3.25,7.86,3.02,12.87,2.69,1.31,0,2.65.11,4.03.33,2.71.38,5.32.45,8.05.43h45.74c1.69.02,3.32-.24,4.9-.78v1.38c4.31-.46,8.63-.9,13.07-1.38v1.38c.46-.02.92-.05,1.39-.06,8.75-.38,17.47-.72,26.24-.59.56,0,1.11,0,1.67.01.48,0,.96.01,1.45.02.93,0,2.01-.26,3.22-.76,1.01.17,2.03.35,3.04.52,4.38.5,8.87.14,13.25.02.79,0,1.59-.02,2.41-.02.72-.02,1.44-.03,2.18-.05,2.26.26,3.43.86,5.25,2.29,1.59,2.52,1.41,3.94,1.31,6.89h-.66c-.3-1.39-.59-2.79-.89-4.18-.23-.99-.81-1.9-1.72-2.71-1.84-.14-3.63-.19-5.48-.17h-20.64c-4.71,0-9.44,0-14.15-.02-13.41-.04-26.83-.05-40.24-.05-7.4,0-14.81-.01-22.21-.04-4.68-.01-9.37-.01-14.07,0-2.92,0-5.84,0-8.76-.02h-4.05c-1.84,0-3.7,0-5.55-.01-.53,0-1.07,0-1.62.02-3.58-.05-6.69-.78-9.58-3.12-.53-.98-.96-1.9-1.31-2.75v-.02Z"/>
  <path class="st108" d="M255.63,129.23c1.72.97,2.48,1.91,3.51,3.63-2.64-1.09-5.24-2.27-7.83-3.45-.22.22-.43.46-.66.69-2.29-.04-4.56-.14-6.85-.25-2.79.3-3.7.81-5.56,3-2.01,3.85-2.37,7.96-2.65,12.28-.05.66-.09,1.33-.15,2.01-.32,4.45-.57,8.9-.78,13.35-.03.55-.05,1.08-.08,1.64-.13,2.7-.27,5.39-.39,8.09-.05,1-.09,2.01-.15,3.01-.04.89-.08,1.77-.12,2.69-.24,2.39-.67,4.35-1.55,6.57-.43.23-.87.46-1.31.69l.66,1.38c-2.06.19-3.02.17-4.78-1.03-.36-.35-.73-.68-1.1-1.03,1.94-.45,3.9-.91,5.88-1.38.58-4.4.87-8.77,1.1-13.2.08-1.49.16-2.97.24-4.47.12-2.33.24-4.65.36-6.98.12-2.26.24-4.52.36-6.78.04-.68.07-1.38.11-2.08.46-8.21,1.91-13.82,4.35-16.82,5.86-4.67,10.76-4.08,17.39-1.56h-.01ZM242.82,128.72v.69h4.58v-.69h-4.58Z"/>
  <path class="st40" d="M84.72,168.7l1.97,1.38c1.1.15,2.29.21,3.55.2.73,0,1.45.01,2.19.02h2.37c.8,0,1.61,0,2.44.02,2.57.04,5.16.06,7.73.07,3.39.02,6.77.06,10.16.11h2.37c.73,0,1.45.01,2.19.02.65,0,1.28,0,1.94.01,1.08.12,2.27.64,3.57,1.56h-7.19v1.38c-.73-.01-1.45-.02-2.21-.04-1.51-.09-2.73.15-3.67.73-1.34-.14-2.64-.37-3.92-.69-.22-.45-.44-.91-.66-1.38-.71.12-1.43.26-2.17.38-1.61.2-3.06.07-4.38-.38-.87.21-1.75.45-2.61.69-1.02.06-2.05.09-3.06.09h-1.56c-.83-.06-1.47-.32-1.91-.78-1.49-.14-2.99-.22-4.48-.3-.92-.26-1.67-.87-2.23-1.81-.15-.45-.31-.89-.47-1.35l.04.05Z"/>
  <path class="st41" d="M287.24,213.51c.86.2,1.71.4,2.57.61.47.11.96.22,1.44.33.81.29,1.43.89,1.86,1.81-.45-.04-.9-.08-1.36-.12-.59-.04-1.17-.06-1.79-.1-.58-.04-1.17-.08-1.76-.12-1.16.11-2.04.71-2.64,1.8-1.04,2.19-1.49,4.1-1.92,6.51-.08.44-.16.88-.24,1.34-.27,1.45-.53,2.89-.78,4.34-.19,1-.36,2.02-.55,3.02-.48,2.65-.97,5.3-1.44,7.94-.77,4.24-1.53,8.49-2.3,12.73-.27,1.47-.54,2.96-.79,4.44-.16.9-.34,1.82-.5,2.73-.15.79-.28,1.59-.43,2.4-.42,1.8-.9,3.2-1.78,4.8.08-1.65.16-3.31.24-4.96.03-.46.04-.93.07-1.41.11-1.98.24-3.72.96-5.56.83-2.22,1.25-4.39,1.68-6.73.08-.46.18-.92.26-1.39l.53-2.9c.27-1.47.54-2.95.82-4.41.18-.94.35-1.88.51-2.84.15-.85.31-1.71.47-2.58.31-2.22.4-4.28.34-6.51h1.31c.08-.78.16-1.56.24-2.37.66-5.46,1.66-9.27,3.02-11.41h1.97v-1.38h.03Z"/>
  <path class="st132" d="M259.52,72.29c1.5.4,2.9,1.07,4.2,1.98,1.39,4.73-.15,9.21-1.27,13.87-.38,1.6-.75,3.18-1.12,4.78-.18.71-.34,1.4-.51,2.13-.35,1.86-.44,3.51-.36,5.4-.65.23-1.3.46-1.97.69.53-2.81,1.06-5.63,1.59-8.44.15-.8.31-1.61.46-2.42.15-.77.3-1.54.44-2.33.13-.71.27-1.41.4-2.14.23-1.15.47-2.29.74-3.42.35-1.52.35-2.94.32-4.5,0-.55,0-1.1-.01-1.67,0-.42-.01-.83-.03-1.26-1.49-.79-2.34-.76-4-.73-.83.01-1.67.02-2.53.04-.07.41-.15.81-.22,1.23-.34,1.83-.67,3.67-1.01,5.5-.11.63-.23,1.26-.35,1.92-.11.61-.23,1.23-.35,1.86-.1.56-.2,1.13-.31,1.71-.39,1.59-.94,2.9-1.7,4.34.48-8.91,1.76-14.73,3.84-17.47.92-.75,2.16-1.1,3.72-1.05h.01Z"/>
  <path class="st122" d="M187.95,120.46c2.62,2.78,2.62,7.92,3.27,11.72.09.51.18,1.02.27,1.55.87,5.96.81,12.54-.27,18.44-1.31-1.76-2.52-3.41-3.27-5.51.16-1.03.38-1.95.66-2.75.22.46.43.9.66,1.38,1.48-6.96.48-13.54-.87-20.42-.29-1.55-.43-3.02-.43-4.39h-.01ZM189.9,146.64l.66,1.38-.66-1.38Z"/>
  <path class="st18" d="M175.54,96.33c4.99,3.73,7.98,9.06,9.8,15.17.7,1.78,1.43,3.56,2.15,5.33.31,1.04.24,2.25-.19,3.63-.16-.48-.32-.97-.48-1.46-.22-.63-.44-1.25-.66-1.9-.22-.63-.43-1.26-.65-1.9-.94-1.86-1.59-2.3-3.45-3.02.15-.37.3-.76.46-1.14.28-2.38-.65-3.45-1.88-5.4-.4-.64-.79-1.29-1.21-1.96-.81-1.24-1.72-2.33-2.75-3.27-.76-.88-1.14-2.23-1.14-4.08h0ZM183.37,110.81l.66,1.38-.66-1.38Z"/>
  <path class="st48" d="M199.05,122.53c.98,4.02,1.43,7.81,1.51,11.97.01.55.03,1.09.04,1.65.04,1.73.08,3.47.12,5.2.03,1.18.05,2.35.08,3.54.07,2.89.13,5.76.2,8.65,1.08-.9,2.15-1.82,3.27-2.75-.98,2.91-2.83,3.9-5.22,5.51v-1.61c.01-2.44.03-4.87.03-7.31,0-.83,0-1.67.01-2.53,0-4.06-.07-8.03-.57-12.07-.2-1.8-.24-3.58-.23-5.39v-1.91c.05-1.05.3-2.03.74-2.95h.01Z"/>
  <path class="st58" d="M267.64,128.04c2.64,2.4,3.41,5.35,3.76,8.92.67,10.12-2.54,20.04-5.06,29.68-.78-2.39-.51-3.88.13-6.28.18-.69.36-1.39.54-2.11.19-.74.39-1.49.58-2.24,1.99-8.09,2.45-15.52,2.01-23.82h-1.31c-.47-.86-.9-1.78-1.31-2.75l.66-1.38v-.02Z"/>
  <path class="st85" d="M325.13,105.98h.66c.04,1.08.07,2.16.08,3.23.01.59.03,1.2.04,1.82-.08,1.23-.34,2.35-.77,3.37-1,2.9-.87,5.71-.86,8.77v1.95c.07,4.65.59,8.82,1.74,13.32.44,2.11.5,3.99.43,6.15-1.12-1.88-1.43-3.48-1.63-5.64-.11-.87-.22-1.73-.32-2.63-.43-.22-.86-.46-1.31-.69-.78-10.31-.39-19.53,1.97-29.64h-.03Z"/>
  <path class="st56" d="M158.55,281.74c1.43,2.24,1.82,3.93,2.37,6.54.18.79.34,1.57.51,2.39.25,1.4.38,2.78.38,4.15-.53.72-1.14,1.44-1.83,2.16-.34.36-.69.71-1.04,1.08-.7.6-1.7,1.13-3,1.59-.54.96-1.01,2.01-1.43,3.15-.22.57-.45,1.14-.69,1.72-.16.43-.34.88-.5,1.34-.3-.77-.52-1.69-.66-2.75.5-1.18,1.11-2.39,1.83-3.62.36-.61.72-1.23,1.08-1.86.34-.47.66-.93,1.01-1.41h1.31c.22-.68.43-1.36.66-2.07.43-.46.86-.9,1.31-1.38,0-2.38-.48-4.41-1.02-6.72-.19-1.03-.28-2.47-.28-4.31h0Z"/>
  <path class="st31" d="M331.66,231.43h.66c.9,4.23.26,7.24-.94,11.33-.16.57-.32,1.14-.48,1.72-.39,1.4-.79,2.79-1.2,4.18h-1.31c-.22,1.59-.43,3.18-.66,4.82-1.01-2.83-.46-5.37,0-8.27l.66-.69h-.66v-3.45c.43-.22.86-.46,1.31-.69.22.68.43,1.36.66,2.07.08-.79.16-1.6.24-2.42.35-2.95.98-5.75,1.71-8.61h.01Z"/>
  <path class="st107" d="M161.82,89.44h.66c-.22,8.41-.43,16.83-.66,25.5-1.29-.22-2.58-.46-3.92-.69-.22-.69-.44-1.38-.66-2.07,1.08.22,2.15.46,3.27.69-.22-.46-.43-.9-.66-1.38.22-.46.43-.9.66-1.38-.43-.22-.86-.46-1.31-.69.22-.22.43-.46.66-.69.2-1.43.35-2.86.5-4.29.09-.87.18-1.74.26-2.63.09-.93.18-1.85.27-2.78.09-.93.19-1.86.27-2.78.23-2.28.44-4.55.66-6.83h0Z"/>
  <path class="st78" d="M255.63,129.23c1.72.97,2.48,1.91,3.51,3.63-2.64-1.09-5.24-2.27-7.83-3.45-.22.22-.43.46-.66.69-1.32.05-2.64.06-3.96.04-.72,0-1.44,0-2.18-.02-.55,0-1.12-.01-1.7-.02-.22-.68-.43-1.36-.66-2.07,4.75-1.67,8.86-.55,13.48,1.19h0ZM242.82,128.72v.69h4.58v-.69h-4.58Z"/>
  <path class="st16" d="M164.43,330.69c.74.12,1.48.23,2.22.35,3.08.41,6.11.42,9.21.4h1.63c1.31,0,2.61-.02,3.93-.04v1.38h-1.31c-.22.9-.43,1.82-.66,2.75l-2.61.69c.22-.46.43-.9.66-1.38l-1.31-.69v-1.38c-.52.01-1.04.04-1.57.05-4.59.08-7.98-.39-10.18-1.43v-.69h-.01Z"/>
  <path class="st72" d="M246.09,150.09c.32.2.65.4.97.59,2.28,1.08,4.62,1.64,7.03,2.24.48.12.98.25,1.48.38,1.2.31,2.4.61,3.59.92-.22,1.82-.43,3.64-.66,5.51h-.66v-4.14l-1.31,2.07v-1.38h-2.61v-2.75c-.4-.04-.81-.06-1.21-.1-.53-.05-1.06-.1-1.6-.16-.52-.05-1.05-.1-1.59-.15-.99-.19-2.13-.74-3.43-1.66v-1.38h0Z"/>
  <path class="st45" d="M212.11,154.23c4.5,3.42,7.33,5.95,8.49,7.58-.08,1.75-.3,3.36-.66,4.82l-1.97.69c.03-.86.05-1.71.08-2.59,0-2.04-.46-3.94-1.39-5.69-1.08-.5-2.17-.95-3.27-1.38-.79-.74-1.44-1.43-1.97-2.07l.66-1.38h.01Z"/>
  <path class="st94" d="M263.08,75.65l1.31.69c-.51,5.2-1.63,10.17-2.79,15.25-.14.64-.29,1.3-.44,1.97-.13.58-.27,1.16-.4,1.76-.3,1.75-.34,3.37-.3,5.14-.65.23-1.3.46-1.97.69.09-.48.19-.95.28-1.45.43-2.22.85-4.44,1.28-6.65.15-.76.3-1.5.44-2.28.96-5.03,1.82-10.06,2.58-15.12h0Z"/>
  <path class="st39" d="M148.1,130.79c1.53,2.16,2.92,4.29,4.28,6.54.39.64.78,1.29,1.18,1.96.87,1.5,1.66,3,2.37,4.59-2.17-.68-3.1-1.14-4.46-3.1-.52-1.15-.78-2.18-.78-3.1h-1.31c-.43-2.28-.86-4.55-1.31-6.89h.01Z"/>
  <path class="st14" d="M329.7,174.22h.66c.13,4.05-.31,6.8-1.31,8.27-1.58.83-2.58.76-4.32.73-.53,0-1.07,0-1.62-.02-.41,0-.83,0-1.24-.02l-.66-1.38c1.51.22,3.02.46,4.58.69v-1.38c.65-.22,1.29-.46,1.97-.69.45-.97.82-2.02,1.1-3.15.16-.57.32-1.14.5-1.72.12-.43.24-.88.36-1.34h-.03Z"/>
  <path class="st119" d="M314.67,110.11c.44,1.38.33,2.82-.34,4.31-.47.87-.94,1.72-1.43,2.59-.23.43-.47.87-.7,1.31-1.31,2.38-2.49,4.13-4.74,5.58.69-1.5,1.4-2.9,2.25-4.31,1.08-2,1.75-3.95,2.42-6.12.62-1.46,1.39-2.29,2.52-3.36h.01Z"/>
  <path class="st18" d="M199.05,122.53c.23.92.44,1.83.66,2.75.12.5.23.98.35,1.49.39,2.45.38,4.87.35,7.35v1.45c0,1.16-.01,2.34-.03,3.51-2.88-3.04-2.03-9.48-2.05-13.59.05-1.05.3-2.03.74-2.95h-.03Z"/>
  <path class="st94" d="M351.91,193.52h.66c-.27,5.99-1.71,11.51-3.27,17.24-.63-2.16-.65-3.8-.36-6.04.07-.55.13-1.1.2-1.67.05-.42.11-.83.16-1.26h1.31c.43-2.73.86-5.46,1.31-8.27Z"/>
  <path class="st127" d="M292.46,123.9l1.31.69c-.92,1.13-1.84,2.24-2.77,3.36-.51.62-1.04,1.25-1.56,1.9-1.37,1.46-2.36,2.27-4.16,3.02.89-2.95,2.1-4.44,4.32-6.42.54-.48,1.06-.97,1.62-1.46.41-.36.83-.72,1.24-1.09h.01Z"/>
  <path class="st82" d="M267.64,128.04c2.3,2.09,3.11,4.36,3.54,7.51.04.67.09,1.33.13,2.01.05.67.09,1.35.15,2.03.04.5.07,1.02.09,1.54-.43.22-.86.46-1.31.69-.22-3.18-.43-6.37-.66-9.65h-1.31c-.47-.86-.9-1.78-1.31-2.75l.66-1.38Z"/>
  <path class="st24" d="M236.29,120.46l1.31.69c-.65.22-1.29.46-1.97.69-.44.92-.87,1.83-1.31,2.75-.84,1.03-1.71,1.95-2.61,2.75h-1.97c.93-2.38,2.02-3.52,4-4.99.47-.36.94-.72,1.44-1.09.36-.27.73-.53,1.1-.81Z"/>
  <path class="st91" d="M152.02,305.87h.66c.22,4.32.43,8.65.66,13.1-1.86-1.96-2.06-4.28-2.61-6.89-.16-.64-.32-1.28-.48-1.93-.11-1.01.27-2.2,1.14-3.58l.66-.69h-.03Z"/>
  <path class="st75" d="M301.62,365.16c.65.22,1.29.46,1.97.69-2.5,2.73-4.61,4.13-6.33,4.23-.5-.02-1.01-.05-1.51-.09v-1.38c.36-.19.74-.38,1.12-.58.48-.25.96-.5,1.45-.76.48-.25.96-.5,1.44-.76.79-.39,1.41-.84,1.86-1.36h0Z"/>
  <path class="st81" d="M172.26,134.93c.76.06,1.63.29,2.61.69,1.01,1.29,1.88,2.67,2.61,4.14-.17,1.01-.39,1.92-.66,2.75-.77-1.13-1.52-2.27-2.29-3.41-.43-.63-.85-1.26-1.29-1.91-.66-1.05-1-1.81-1-2.27h.01Z"/>
  <path class="st15" d="M205.58,112.87c0,2.43-.34,2.71-1.83,4.44-1.43,1.69-2.79,3.37-4.04,5.22,0-2.75.07-4.15,1.86-6.22,1.31-1.19,2.64-2.33,4.03-3.43h-.01Z"/>
  <path class="st22" d="M158.55,281.74c1.43,2.26,1.84,3.97,2.41,6.59.18.79.36,1.6.54,2.42.22,1.35.1,2.48-.34,3.4-.87-.46-1.53-1.38-1.97-2.75.22-.68.43-1.36.66-2.07-.42-1.61-.85-3.22-1.31-4.82v-2.75h0Z"/>
  <path class="st67" d="M85.38,159.74c.65.22,1.29.46,1.97.69-.75,1.7-1.33,2.79-2.61,4.14-.07,1.42-.07,2.8,0,4.14-.43-.22-.86-.46-1.31-.69-.19-3.46,0-5.44,1.97-8.27h-.01Z"/>
  <path class="st25" d="M181.42,90.82c2.86,2.3,4.6,4.59,5.22,6.89-2.5-1.73-4.24-3.11-5.22-4.14v-2.75Z"/>
  <path class="st5" d="M272.38,89.64c.38.16.75.32,1.14.48-.44.25-.89.48-1.35.73-2.14,1.49-3.73,3.21-5.48,5.18-.67.65-1.44.98-2.32.98.94-2.29,2.07-3.72,3.84-5.39.44-.43.89-.86,1.35-1.3.9-.59,1.84-.82,2.83-.68h-.01Z"/>
  <path class="st25" d="M142.22,139.75c3.33,2.52,4.44,4.03,5.22,8.27-2.14-2.13-3.88-4.11-5.22-6.89v-1.38Z"/>
  <path class="st56" d="M326.44,154.23h.66c.53,2.92.57,5.07.12,6.46-.52.74-1.22,1.35-2.09,1.81.44-3.94.87-6.7,1.31-8.27h0Z"/>
  <path class="st82" d="M179.45,145.96l.66,1.38c.65.22,1.29.46,1.97.69.49,2.59.49,4.66,0,6.21-.44-.99-.87-1.98-1.31-2.97-.24-.56-.48-1.1-.74-1.67-.38-1.04-.57-2.25-.57-3.63h-.01Z"/>
  <path class="st25" d="M306.18,358.95h1.97c-.92,3.06-2.36,4.73-4.58,6.89.19-.37.38-.74.57-1.12.85-1.88,1.44-3.79,2.05-5.77Z"/>
  <path class="st62" d="M180.1,333.44l1.31.69-1.31.69v-1.38h0ZM176.18,336.21c.9.2,1.77.43,2.61.69-.39.19-.78.37-1.18.56-1.41.81-2.32,1.64-3.39,2.89.82-2.24,1.47-3.62,1.97-4.14Z"/>
  <path class="st105" d="M165.74,82.54l.66,1.38c-.34.99-.76,2.05-1.27,3.18-.24.56-.5,1.13-.75,1.71-.2.43-.39.87-.59,1.31h-.66c.27-3.45.83-5.75,1.67-6.89.31-.22.62-.46.94-.69Z"/>
  <path class="st97" d="M161.16,161.12c2.41.22,4.13.93,5.14,2.11.24.44.49.88.74,1.34-2.81-.33-4.03-1.2-5.88-3.45h0Z"/>
  <path class="st6" d="M323.17,99.78h4.58c-.43,2.04-.86,4.09-1.31,6.21-.44-1.83-.66-3.44-.66-4.82l-2.61-1.38h0Z"/>
  <path class="st123" d="M274.83,89.44h1.31c1.06,1.77,1.33,2.54,1.06,4.65l-.4,1.55c-1.08-2.04-1.6-3.9-1.97-6.21h0Z"/>
  <path class="st134" d="M170.96,201.11h6.53v.69h-6.53v-.69Z"/>
  <path class="st80" d="M317.95,174.22l2.61.69c-.22,1.14-.43,2.28-.66,3.45-.22-.9-.43-1.82-.66-2.75h-1.31v-1.38h.01Z"/>
  <path class="st52" d="M212.77,201.11h5.88v.69h-5.88v-.69Z"/>
  <path class="st27" d="M270.25,201.11h4.58v.69h-4.58v-.69Z"/>
  <path class="st66" d="M150.05,153.55c.65.22,1.29.46,1.97.69v1.38c-.65-.22-1.29-.46-1.97-.69v-1.38Z"/>
  <path class="st43" d="M319.9,100.47c.65.22,1.29.46,1.97.69-.22.46-.43.9-.66,1.38h-1.31v-2.07Z"/>
  <path class="st23" d="M297.04,347.24h.66v4.14h-.66v-4.14Z"/>
  <path class="st99" d="M272.22,333.44h3.92v.69h-3.92v-.69Z"/>
  <path class="st37" d="M197.75,251.42h1.31v3.45c-.87-1.78-1.31-2.93-1.31-3.45Z"/>
  <path class="st88" d="M191.86,220.4l1.31,2.75c-.43.23-.87.46-1.31.69v-3.45Z"/>
  <path class="st58" d="M351.26,203.86h.66v3.45c-.43-.22-.86-.46-1.31-.69l.66-2.75h-.01Z"/>
  <path class="st7" d="M194.48,167.33l2.61.69c-.86.22-1.72.46-2.61.69v-1.38h0Z"/>
  <path class="st111" d="M210.8,333.44h3.27v.69h-3.27v-.69Z"/>
  <path class="st23" d="M208.85,276.23l2.61.69-1.31.69-1.31-1.38h0Z"/>
  <path class="st35" d="M275.49,253.49h.66v3.45h-.66v-3.45Z"/>
  <path class="st88" d="M194.48,232.13c.22.68.43,1.36.66,2.07h-1.31c.22-.68.43-1.36.66-2.07h-.01Z"/>
  <path class="st101" d="M256.53,183.87l2.61.69-1.31.69-1.31-1.38h0Z"/>
  <path class="st75" d="M120.65,172.84h2.61c-.22.46-.43.9-.66,1.38-.65-.46-1.29-.9-1.97-1.38h.01Z"/>
  <path class="st49" d="M199.7,370.67c.65.22,1.29.46,1.97.69h-1.97v-.69Z"/>
  <path class="st134" d="M184.03,349.29h1.31c-.22.68-.43,1.36-.66,2.07-.22-.68-.43-1.36-.66-2.07h.01Z"/>
  <path class="st10" d="M256.53,333.44l2.61.69-2.61-.69Z"/>
  <path class="st84" d="M172.92,333.44l2.61.69-2.61-.69Z"/>
  <path class="st65" d="M150.71,314.15l.66,2.75-.66-2.75Z"/>
  <path class="st36" d="M322.52,263.14l.66,2.75-.66-2.75Z"/>
  <path class="st33" d="M151.36,263.14h1.31c-.22.68-.43,1.36-.66,2.07-.22-.68-.43-1.36-.66-2.07h.01Z"/>
  <path class="st95" d="M206.89,225.92l.66,2.75-.66-2.75Z"/>
  <path class="st98" d="M346.69,222.47h1.31v1.38h-1.31v-1.38Z"/>
  <path class="st134" d="M277.44,201.11l2.61.69-2.61-.69Z"/>
  <path class="st32" d="M230.4,201.11l2.61.69-2.61-.69Z"/>
  <path class="st101" d="M225.18,201.11l2.61.69-2.61-.69Z"/>
  <path class="st35" d="M204.28,201.11l2.61.69-2.61-.69Z"/>
  <path class="st19" d="M167.69,201.11l2.61.69-2.61-.69Z"/>
  <path class="st31" d="M130.45,187.31h1.31c-.22.68-.43,1.36-.66,2.07-.22-.68-.43-1.36-.66-2.07h.01Z"/>
  <path class="st92" d="M251.97,175.6l.66,2.75-.66-2.75Z"/>
  <path class="st85" d="M94.52,172.84l2.61.69-2.61-.69Z"/>
  <path class="st42" d="M89.3,172.84l2.61.69-2.61-.69Z"/>
  <path class="st66" d="M287.9,161.81h1.97c-.22.46-.43.9-.66,1.38l-1.31-1.38Z"/>
  <path class="st102" d="M222.57,161.12h1.31c-.22.68-.43,1.36-.66,2.07-.22-.68-.43-1.36-.66-2.07h.01Z"/>
  <path class="st95" d="M152.66,156.3c.65.22,1.29.46,1.97.69h-1.97v-.69Z"/>
  <path class="st68" d="M259.8,141.82c.22.68.43,1.36.66,2.07-.43-.22-.86-.46-1.31-.69l.66-1.38h-.01Z"/>
  <path class="st17" d="M236.29,139.07l1.31,2.07h-1.31v-2.07Z"/>
  <path class="st92" d="M259.8,137l.66,2.75-.66-2.75Z"/>
  <path class="st103" d="M172.26,137l1.31,2.07h-1.31v-2.07Z"/>
  <path class="st57" d="M135.69,126.65l.66,2.75-.66-2.75Z"/>
  <path class="st7" d="M187.95,125.97l.66,2.75-.66-2.75Z"/>
  <path class="st66" d="M208.85,121.14l.66,2.75-.66-2.75Z"/>
  <path class="st45" d="M295.07,371.35l1.97.69-1.97-.69Z"/>
  <path class="st125" d="M289.85,341.72l1.97.69-1.97-.69Z"/>
  <path class="st121" d="M191.2,341.72l1.97.69-1.97-.69Z"/>
  <path class="st99" d="M267.64,333.44l1.97.69-1.97-.69Z"/>
  <path class="st52" d="M225.83,333.44l1.97.69-1.97-.69Z"/>
  <path class="st49" d="M315.98,300.36l1.97.69-1.97-.69Z"/>
  <path class="st69" d="M326.44,294.16l.66,1.38c-.43-.22-.86-.46-1.31-.69l.66-.69h-.01Z"/>
  <path class="st2" d="M157.9,292.77l1.31.69-1.31.69v-1.38h0Z"/>
  <path class="st7" d="M278.1,276.23l1.97.69-1.97-.69h0Z"/>
  <path class="st26" d="M288.55,255.56l1.31.69-1.31.69v-1.38h0Z"/>
  <path class="st21" d="M147.44,250.04h1.31c-.22.46-.43.9-.66,1.38l-.66-1.38h.01Z"/>
  <path class="st80" d="M192.52,230.06l1.97.69-1.97-.69Z"/>
  <path class="st7" d="M299,201.11l1.97.69-1.97-.69Z"/>
  <path class="st77" d="M283.32,201.11l1.97.69-1.97-.69Z"/>
  <path class="st27" d="M266.99,201.11l1.97.69-1.97-.69Z"/>
  <path class="st52" d="M251.31,201.11l1.97.69-1.97-.69Z"/>
  <path class="st111" d="M246.73,201.11l1.97.69-1.97-.69Z"/>
  <path class="st64" d="M220.6,201.11l1.97.69-1.97-.69Z"/>
  <path class="st29" d="M209.5,201.11l1.97.69-1.97-.69Z"/>
  <path class="st52" d="M178.15,201.11l1.97.69-1.97-.69Z"/>
  <path class="st44" d="M134.38,201.11h1.31c-.22.46-.43.9-.66,1.38l-.66-1.38h.01Z"/>
  <path class="st100" d="M131.76,189.38l.66,1.38c-.43-.22-.86-.46-1.31-.69l.66-.69h-.01Z"/>
  <path class="st20" d="M324.47,183.87l1.97.69-1.97-.69Z"/>
  <path class="st17" d="M277.44,183.87l1.97.69-1.97-.69Z"/>
  <path class="st124" d="M167.04,183.87l1.97.69-1.97-.69Z"/>
  <path class="st103" d="M262.42,181.8l.66,1.38c-.43-.22-.86-.46-1.31-.69l.66-.69h-.01Z"/>
  <path class="st102" d="M174.23,180.42l1.31,1.38h-1.31v-1.38Z"/>
  <path class="st30" d="M143.52,178.36l1.31,1.38h-1.31v-1.38Z"/>
  <path class="st20" d="M255.23,163.19l.66,1.38c-.43-.22-.86-.46-1.31-.69l.66-.69h-.01Z"/>
  <path class="st27" d="M291.82,162.51l1.97.69-1.97-.69Z"/>
  <path class="st46" d="M130.45,158.37l.66,1.38c-.43-.22-.86-.46-1.31-.69l.66-.69h-.01Z"/>
  <path class="st54" d="M235.63,150.09l1.31,1.38h-1.31v-1.38Z"/>
  <path class="st64" d="M289.85,148.03l1.31,1.38h-1.31v-1.38Z"/>
  <path class="st114" d="M280.71,135.61l1.31.69-1.31.69v-1.38h0Z"/>
  <path class="st17" d="M165.74,130.79l1.97.69-1.97-.69Z"/>
  <path class="st35" d="M208.19,124.59h1.31c-.22.46-.43.9-.66,1.38l-.66-1.38h.01Z"/>
  <path class="st14" d="M151.36,121.14l1.31.69-1.31.69v-1.38h0Z"/>
  <path class="st7" d="M208.19,116.32l.66,1.38c-.43-.22-.86-.46-1.31-.69l.66-.69h-.01Z"/>
  <path class="st49" d="M308.79,95.64l.66,1.38c-.43-.22-.86-.46-1.31-.69l.66-.69h-.01Z"/>
  <path class="st61" d="M293.77,372.05l1.31.69-1.31-.69Z"/>
  <path class="st0" d="M195.14,372.05l1.31.69-1.31-.69Z"/>
  <path class="st120" d="M186.64,372.05l1.31.69-1.31-.69Z"/>
  <path class="st63" d="M304.23,333.44l1.31.69-1.31-.69Z"/>
  <path class="st128" d="M270.25,333.44l1.31.69-1.31-.69Z"/>
  <path class="st130" d="M241.51,333.44l1.31.69-1.31-.69Z"/>
  <path class="st115" d="M223.22,333.44l1.31.69-1.31-.69Z"/>
  <path class="st71" d="M217.99,333.44l1.31.69-1.31-.69Z"/>
  <path class="st130" d="M215.38,333.44l1.31.69-1.31-.69Z"/>
  <path class="st35" d="M170.96,333.44l1.31.69-1.31-.69Z"/>
  <path class="st116" d="M268.95,319.66l1.31.69-1.31-.69Z"/>
  <path class="st118" d="M168.35,318.28l1.31.69-1.31-.69Z"/>
  <path class="st14" d="M305.53,303.12l1.31.69-1.31-.69Z"/>
  <path class="st93" d="M211.46,303.12l1.31.69-1.31-.69Z"/>
  <path class="st106" d="M321.2,297.61l1.31.69-1.31-.69Z"/>
  <path class="st55" d="M275.49,275.55l1.31.69-1.31-.69Z"/>
  <path class="st7" d="M153.97,217.65l1.31.69-1.31-.69Z"/>
  <path class="st47" d="M152.66,214.19l1.31.69-1.31-.69Z"/>
  <path class="st133" d="M291.82,213.51l1.31.69-1.31-.69Z"/>
  <path class="st7" d="M244.78,213.51l1.31.69-1.31-.69Z"/>
  <path class="st87" d="M351.91,201.11l1.31.69-1.31-.69Z"/>
  <path class="st79" d="M327.75,201.11l1.31.69-1.31-.69Z"/>
  <path class="st103" d="M325.13,201.11l1.31.69-1.31-.69Z"/>
  <path class="st35" d="M312.06,201.11l1.31.69-1.31-.69Z"/>
  <path class="st134" d="M306.84,201.11l1.31.69-1.31-.69Z"/>
  <path class="st64" d="M296.38,201.11l1.31.69-1.31-.69Z"/>
  <path class="st27" d="M280.71,201.11l1.31.69-1.31-.69Z"/>
  <path class="st115" d="M275.49,201.11l1.31.69-1.31-.69Z"/>
  <path class="st111" d="M265.03,201.11l1.31.69-1.31-.69Z"/>
  <path class="st102" d="M262.42,201.11l1.31.69-1.31-.69Z"/>
  <path class="st13" d="M259.8,201.11l1.31.69-1.31-.69Z"/>
  <path class="st38" d="M257.19,201.11l1.31.69-1.31-.69Z"/>
  <path class="st55" d="M249.35,201.11l1.31.69-1.31-.69Z"/>
  <path class="st52" d="M244.12,201.11l1.31.69-1.31-.69Z"/>
  <path class="st77" d="M241.51,201.11l1.31.69-1.31-.69Z"/>
  <path class="st52" d="M238.9,201.11l1.31.69-1.31-.69Z"/>
  <path class="st101" d="M236.29,201.11l1.31.69-1.31-.69Z"/>
  <path class="st101" d="M233.68,201.11l1.31.69-1.31-.69Z"/>
  <path class="st23" d="M223.22,201.11l1.31.69-1.31-.69Z"/>
  <path class="st11" d="M200.36,201.11l1.31.69-1.31-.69Z"/>
  <path class="st9" d="M194.48,201.11l1.31.69-1.31-.69Z"/>
  <path class="st8" d="M189.25,201.11l1.31.69-1.31-.69Z"/>
  <path class="st104" d="M184.03,201.11l1.31.69-1.31-.69Z"/>
  <path class="st1" d="M165.74,201.11l1.31.69-1.31-.69Z"/>
  <path class="st12" d="M329.05,185.94l1.31.69-1.31-.69Z"/>
  <path class="st112" d="M302.92,185.94l1.31.69-1.31-.69Z"/>
  <path class="st47" d="M292.46,185.94l1.31.69-1.31-.69Z"/>
  <path class="st111" d="M287.9,185.94l1.31.69-1.31-.69Z"/>
  <path class="st89" d="M261.11,185.94l1.31.69-1.31-.69Z"/>
  <path class="st4" d="M258.5,185.94l1.31.69-1.31-.69Z"/>
  <path class="st27" d="M255.89,185.94l1.31.69-1.31-.69Z"/>
  <path class="st55" d="M240.2,185.94l1.31.69-1.31-.69Z"/>
  <path class="st101" d="M234.98,185.94l1.31.69-1.31-.69Z"/>
  <path class="st73" d="M224.52,185.94l1.31.69-1.31-.69Z"/>
  <path class="st53" d="M193.17,185.94l1.31.69-1.31-.69Z"/>
  <path class="st28" d="M182.72,185.94l1.31.69-1.31-.69Z"/>
  <path class="st3" d="M330.36,184.56l1.31.69-1.31-.69Z"/>
  <path class="st113" d="M279.4,184.56l1.31.69-1.31-.69Z"/>
  <path class="st96" d="M322.52,183.87l1.31.69-1.31-.69Z"/>
  <path class="st115" d="M173.57,183.87l1.31.69-1.31-.69Z"/>
  <path class="st15" d="M104.98,172.84l1.31.69-1.31-.69Z"/>
  <path class="st59" d="M99.76,172.84l1.31.69-1.31-.69Z"/>
  <path class="st83" d="M189.25,167.33l1.31.69-1.31-.69Z"/>
  <path class="st131" d="M208.85,166.63l1.31.69-1.31-.69Z"/>
  <path class="st52" d="M167.69,166.63l1.31.69-1.31-.69Z"/>
  <path class="st47" d="M203.62,165.26l1.31.69-1.31-.69Z"/>
  <path class="st63" d="M160.51,162.51l1.31.69-1.31-.69Z"/>
  <path class="st28" d="M222.57,159.74l1.31.69-1.31-.69Z"/>
  <path class="st76" d="M336.89,156.99l1.31.69-1.31-.69Z"/>
  <path class="st109" d="M302.92,152.85l1.31.69-1.31-.69Z"/>
  <path class="st114" d="M300.96,152.85l1.31.69-1.31-.69Z"/>
  <path class="st129" d="M299.65,152.16l1.31.69-1.31-.69Z"/>
  <path class="st90" d="M144.83,147.34l1.31.69-1.31-.69Z"/>
  <path class="st126" d="M251.31,141.82l1.31.69-1.31-.69Z"/>
  <path class="st51" d="M246.09,141.82l1.31.69-1.31-.69Z"/>
  <path class="st121" d="M257.19,141.13l1.31.69-1.31-.69Z"/>
  <path class="st92" d="M157.24,123.9l1.31.69-1.31-.69Z"/>
  <path class="st12" d="M154.63,122.53l1.31.69-1.31-.69Z"/>
  <path class="st88" d="M152.66,121.83l1.31.69-1.31-.69Z"/>
  <path class="st110" d="M258.5,119.07l1.31.69-1.31-.69Z"/>
  <path class="st88" d="M157.9,110.81l1.31.69-1.31-.69Z"/>
  <path class="st109" d="M322.52,110.11l1.31.69-1.31-.69Z"/>
  <path class="st50" d="M176.18,101.85l1.31.69-1.31-.69Z"/>
  <path class="st70" d="M325.78,86l1.31.69-1.31-.69Z"/>
</svg>